name rise45.9887peak57.8056fall74.9286.mot
datacolumns 19
datarows 30
range 23.03658500000000 23.08491100000000
endheader
time	ground_force1_vx	ground_force1_vy	ground_force1_vz	ground_force1_px	ground_force1_py	ground_force1_pz	ground_force2_vx	ground_force2_vy	ground_force2_vz	ground_force2_px	ground_force2_py	ground_force2_pz	ground_torque1_x	ground_torque1_y	ground_torque1_z	ground_torque2_x	ground_torque2_y	ground_torque2_z	
23.03658500000000	60.14052800000000	783.73893799999996	72.92097200000001	0.26320400000000	0.00000000000000	0.14048700000000	0.00000000000000	0.00000000000000	0.00000000000000	0.00000000000000	0.00000000000000	0.00000000000000	0.00000000000000	20.82390800000000	0.00000000000000	0.00000000000000	0.00000000000000	0.00000000000000	
23.03824800000000	59.64162500000000	786.42088000000001	72.92959600000000	0.26252500000000	0.00000000000000	0.14037600000000	0.00000000000000	0.00000000000000	0.00000000000000	0.00000000000000	0.00000000000000	0.00000000000000	0.00000000000000	20.84132000000000	0.00000000000000	0.00000000000000	0.00000000000000	0.00000000000000	
23.03991700000000	59.14271400000000	788.95803100000001	72.93114300000001	0.26186200000000	0.00000000000000	0.14026500000000	0.00000000000000	0.00000000000000	0.00000000000000	0.00000000000000	0.00000000000000	0.00000000000000	0.00000000000000	20.85722900000000	0.00000000000000	0.00000000000000	0.00000000000000	0.00000000000000	
23.04158500000000	58.64383700000000	791.34804699999995	72.92574300000000	0.26121100000000	0.00000000000000	0.14015200000000	0.00000000000000	0.00000000000000	0.00000000000000	0.00000000000000	0.00000000000000	0.00000000000000	0.00000000000000	20.87158000000000	0.00000000000000	0.00000000000000	0.00000000000000	0.00000000000000	
23.04324600000000	58.14497400000000	793.58881599999995	72.91346700000000	0.26057100000000	0.00000000000000	0.14003900000000	0.00000000000000	0.00000000000000	0.00000000000000	0.00000000000000	0.00000000000000	0.00000000000000	0.00000000000000	20.88429400000000	0.00000000000000	0.00000000000000	0.00000000000000	0.00000000000000	
23.04491500000000	57.64604400000000	795.67847800000004	72.89432600000001	0.25993900000000	0.00000000000000	0.13992600000000	0.00000000000000	0.00000000000000	0.00000000000000	0.00000000000000	0.00000000000000	0.00000000000000	0.00000000000000	20.89526500000000	0.00000000000000	0.00000000000000	0.00000000000000	0.00000000000000	
23.04657900000000	57.14691500000000	797.61543600000005	72.86827400000000	0.25931300000000	0.00000000000000	0.13981200000000	0.00000000000000	0.00000000000000	0.00000000000000	0.00000000000000	0.00000000000000	0.00000000000000	0.00000000000000	20.90436600000000	0.00000000000000	0.00000000000000	0.00000000000000	0.00000000000000	
23.04824900000000	56.64740400000000	799.39836600000001	72.83521700000000	0.25869100000000	0.00000000000000	0.13969800000000	0.00000000000000	0.00000000000000	0.00000000000000	0.00000000000000	0.00000000000000	0.00000000000000	0.00000000000000	20.91145000000000	0.00000000000000	0.00000000000000	0.00000000000000	0.00000000000000	
23.04991200000000	56.14729100000000	801.02622699999995	72.79501399999999	0.25806900000000	0.00000000000000	0.13958300000000	0.00000000000000	0.00000000000000	0.00000000000000	0.00000000000000	0.00000000000000	0.00000000000000	0.00000000000000	20.91635000000000	0.00000000000000	0.00000000000000	0.00000000000000	0.00000000000000	
23.05158100000000	55.64631500000000	802.49827200000004	72.74748000000000	0.25744700000000	0.00000000000000	0.13946900000000	0.00000000000000	0.00000000000000	0.00000000000000	0.00000000000000	0.00000000000000	0.00000000000000	0.00000000000000	20.91888600000000	0.00000000000000	0.00000000000000	0.00000000000000	0.00000000000000	
23.05325000000000	55.14418600000000	803.81404799999996	72.69239600000000	0.25682100000000	0.00000000000000	0.13935500000000	0.00000000000000	0.00000000000000	0.00000000000000	0.00000000000000	0.00000000000000	0.00000000000000	0.00000000000000	20.91886500000000	0.00000000000000	0.00000000000000	0.00000000000000	0.00000000000000	
23.05491200000000	54.64059200000000	804.97340799999995	72.62951000000000	0.25618900000000	0.00000000000000	0.13924000000000	0.00000000000000	0.00000000000000	0.00000000000000	0.00000000000000	0.00000000000000	0.00000000000000	0.00000000000000	20.91608200000000	0.00000000000000	0.00000000000000	0.00000000000000	0.00000000000000	
23.05658100000000	54.13519900000000	805.97651299999995	72.55854200000000	0.25554900000000	0.00000000000000	0.13912600000000	0.00000000000000	0.00000000000000	0.00000000000000	0.00000000000000	0.00000000000000	0.00000000000000	0.00000000000000	20.91032500000000	0.00000000000000	0.00000000000000	0.00000000000000	0.00000000000000	
23.05825000000000	53.62766200000000	806.82382900000005	72.47919200000000	0.25489900000000	0.00000000000000	0.13901200000000	0.00000000000000	0.00000000000000	0.00000000000000	0.00000000000000	0.00000000000000	0.00000000000000	0.00000000000000	20.90137700000000	0.00000000000000	0.00000000000000	0.00000000000000	0.00000000000000	
23.05991500000000	53.11763100000000	807.51613399999997	72.39114100000000	0.25423600000000	0.00000000000000	0.13889800000000	0.00000000000000	0.00000000000000	0.00000000000000	0.00000000000000	0.00000000000000	0.00000000000000	0.00000000000000	20.88901700000000	0.00000000000000	0.00000000000000	0.00000000000000	0.00000000000000	
23.06157600000000	52.60475200000000	808.05451400000004	72.29406000000000	0.25355800000000	0.00000000000000	0.13878500000000	0.00000000000000	0.00000000000000	0.00000000000000	0.00000000000000	0.00000000000000	0.00000000000000	0.00000000000000	20.87302300000000	0.00000000000000	0.00000000000000	0.00000000000000	0.00000000000000	
23.06324300000000	52.08867600000000	808.44035799999995	72.18761200000000	0.25286500000000	0.00000000000000	0.13867200000000	0.00000000000000	0.00000000000000	0.00000000000000	0.00000000000000	0.00000000000000	0.00000000000000	0.00000000000000	20.85317700000000	0.00000000000000	0.00000000000000	0.00000000000000	0.00000000000000	
23.06491800000000	51.56906500000000	808.67535899999996	72.07145900000000	0.25215200000000	0.00000000000000	0.13856000000000	0.00000000000000	0.00000000000000	0.00000000000000	0.00000000000000	0.00000000000000	0.00000000000000	0.00000000000000	20.82926400000000	0.00000000000000	0.00000000000000	0.00000000000000	0.00000000000000	
23.06657700000000	51.04559300000000	808.76150600000005	71.94526500000001	0.25142000000000	0.00000000000000	0.13844800000000	0.00000000000000	0.00000000000000	0.00000000000000	0.00000000000000	0.00000000000000	0.00000000000000	0.00000000000000	20.80107500000000	0.00000000000000	0.00000000000000	0.00000000000000	0.00000000000000	
23.06824400000000	50.51795700000000	808.70107800000005	71.80870100000000	0.25066600000000	0.00000000000000	0.13833700000000	0.00000000000000	0.00000000000000	0.00000000000000	0.00000000000000	0.00000000000000	0.00000000000000	0.00000000000000	20.76841100000000	0.00000000000000	0.00000000000000	0.00000000000000	0.00000000000000	
23.06991700000000	49.98587600000000	808.49663499999997	71.66145000000000	0.24988900000000	0.00000000000000	0.13822600000000	0.00000000000000	0.00000000000000	0.00000000000000	0.00000000000000	0.00000000000000	0.00000000000000	0.00000000000000	20.73108200000000	0.00000000000000	0.00000000000000	0.00000000000000	0.00000000000000	
23.07157800000000	49.44909600000000	808.15101200000004	71.50321099999999	0.24908800000000	0.00000000000000	0.13811600000000	0.00000000000000	0.00000000000000	0.00000000000000	0.00000000000000	0.00000000000000	0.00000000000000	0.00000000000000	20.68891200000000	0.00000000000000	0.00000000000000	0.00000000000000	0.00000000000000	
23.07324600000000	48.90739600000000	807.66730600000005	71.33370200000000	0.24826000000000	0.00000000000000	0.13800600000000	0.00000000000000	0.00000000000000	0.00000000000000	0.00000000000000	0.00000000000000	0.00000000000000	0.00000000000000	20.64173900000000	0.00000000000000	0.00000000000000	0.00000000000000	0.00000000000000	
23.07491200000000	48.36059200000000	807.04886699999997	71.15266400000000	0.24740600000000	0.00000000000000	0.13789800000000	0.00000000000000	0.00000000000000	0.00000000000000	0.00000000000000	0.00000000000000	0.00000000000000	0.00000000000000	20.58941800000000	0.00000000000000	0.00000000000000	0.00000000000000	0.00000000000000	
23.07658300000000	47.80853600000000	806.29928600000005	70.95986499999999	0.24652400000000	0.00000000000000	0.13779000000000	0.00000000000000	0.00000000000000	0.00000000000000	0.00000000000000	0.00000000000000	0.00000000000000	0.00000000000000	20.53182100000000	0.00000000000000	0.00000000000000	0.00000000000000	0.00000000000000	
23.07825200000000	47.25112200000000	805.42237999999998	70.75510100000000	0.24561400000000	0.00000000000000	0.13768200000000	0.00000000000000	0.00000000000000	0.00000000000000	0.00000000000000	0.00000000000000	0.00000000000000	0.00000000000000	20.46884000000000	0.00000000000000	0.00000000000000	0.00000000000000	0.00000000000000	
23.07991500000000	46.68828600000000	804.42218300000002	70.53820200000000	0.24467500000000	0.00000000000000	0.13757600000000	0.00000000000000	0.00000000000000	0.00000000000000	0.00000000000000	0.00000000000000	0.00000000000000	0.00000000000000	20.40038700000000	0.00000000000000	0.00000000000000	0.00000000000000	0.00000000000000	
23.08158000000000	46.12001200000000	803.30292699999995	70.30903100000000	0.24370600000000	0.00000000000000	0.13747000000000	0.00000000000000	0.00000000000000	0.00000000000000	0.00000000000000	0.00000000000000	0.00000000000000	0.00000000000000	20.32639400000000	0.00000000000000	0.00000000000000	0.00000000000000	0.00000000000000	
23.08324600000000	45.54632700000000	802.06903199999999	70.06748899999999	0.24270800000000	0.00000000000000	0.13736500000000	0.00000000000000	0.00000000000000	0.00000000000000	0.00000000000000	0.00000000000000	0.00000000000000	0.00000000000000	20.24681900000000	0.00000000000000	0.00000000000000	0.00000000000000	0.00000000000000	
23.08491100000000	44.96730600000000	800.72508600000003	69.81351300000000	0.24168000000000	0.00000000000000	0.13726100000000	0.00000000000000	0.00000000000000	0.00000000000000	0.00000000000000	0.00000000000000	0.00000000000000	0.00000000000000	20.16163900000000	0.00000000000000	0.00000000000000	0.00000000000000	0.00000000000000	
